<svg width="256" height="256" viewBox="0 0 256 256" fill="none" xmlns="http://www.w3.org/2000/svg">
<path d="M27.3944 162.46L111.395 218.46C115.714 221.34 121.5 218.244 121.5 213.052V98.9482C121.5 96.7749 120.414 94.7454 118.606 93.5399L34.6056 37.5398C30.286 34.6601 24.5 37.7566 24.5 42.9481V157.052C24.5 159.225 25.5862 161.255 27.3944 162.46Z" fill="#36E489" stroke="black" stroke-width="3"/>
<path d="M228.606 162.46L144.606 218.46C140.286 221.34 134.5 218.244 134.5 213.052V98.9482C134.5 96.7749 135.586 94.7454 137.394 93.5399L221.394 37.5398C225.714 34.6601 231.5 37.7566 231.5 42.9481V157.052C231.5 159.225 230.414 161.255 228.606 162.46Z" fill="#A54BFF" stroke="black" stroke-width="3"/>
</svg>
